# xmcd
#
# Track frame offsets:
# 150
# 15722
# 33573
# 54292
# 70664
# 84990
# 105754
# 123133
# 141436
# 160574
# 179204
# 194561
#
# Disc length: 2799 seconds
#
# Revision: 0
# Processed by: cddbd v1.5PL3 Copyright (c) Steve Scherf et al.
# Submitted via: Axialis_AX_CDPlayer 2.6
#
DISCID=980aed0c
DTITLE=Star Academy - Star academy 2 fait sa boum
DYEAR=1900
DGENRE=
TTITLE0=Video killed the radio star
TTITLE1=Paris latino
TTITLE2=Eve lève-toi
TTITLE3=Call me
TTITLE4=Chercher le garçon
TTITLE5=Wouldn't it be good
TTITLE6=Quand t'es dans le désert
TTITLE7=Le pull over blanc
TTITLE8=Une autre histoire
TTITLE9=Cruel summer
TTITLE10=Mais où sont passées les gazelles
TTITLE11=Joue pas
EXTD=
EXTT0=
EXTT1=
EXTT2=
EXTT3=
EXTT4=
EXTT5=
EXTT6=
EXTT7=
EXTT8=
EXTT9=
EXTT10=
EXTT11=
PLAYORDER=
